<?xml version="1.0" encoding="UTF-8" standalone="no"?>
<!-- Created with Inkscape (http://www.inkscape.org/) -->

<svg
   xmlns:dc="http://purl.org/dc/elements/1.1/"
   xmlns:cc="http://creativecommons.org/ns#"
   xmlns:rdf="http://www.w3.org/1999/02/22-rdf-syntax-ns#"
   xmlns:svg="http://www.w3.org/2000/svg"
   xmlns="http://www.w3.org/2000/svg"
   xmlns:sodipodi="http://sodipodi.sourceforge.net/DTD/sodipodi-0.dtd"
   xmlns:inkscape="http://www.inkscape.org/namespaces/inkscape"
   width="424.95184mm"
   height="342.89996mm"
   viewBox="0 0 424.95184 342.89996"
   version="1.1"
   id="svg1518"
   inkscape:version="0.92.4 (5da689c313, 2019-01-14)"
   sodipodi:docname="LAYER0.svg">
  <defs
     id="defs1512" />
  <sodipodi:namedview
     id="base"
     pagecolor="#ffffff"
     bordercolor="#666666"
     borderopacity="1.0"
     inkscape:pageopacity="0.0"
     inkscape:pageshadow="2"
     inkscape:zoom="0.7"
     inkscape:cx="384.34913"
     inkscape:cy="665.06325"
     inkscape:document-units="mm"
     inkscape:current-layer="layer1"
     showgrid="false"
     inkscape:window-width="1920"
     inkscape:window-height="1004"
     inkscape:window-x="-4"
     inkscape:window-y="-4"
     inkscape:window-maximized="1"
     fit-margin-top="0"
     fit-margin-left="0"
     fit-margin-right="0"
     fit-margin-bottom="0" />
  <metadata
     id="metadata1515">
    <rdf:RDF>
      <cc:Work
         rdf:about="">
        <dc:format>image/svg+xml</dc:format>
        <dc:type
           rdf:resource="http://purl.org/dc/dcmitype/StillImage" />
        <dc:title />
      </cc:Work>
    </rdf:RDF>
  </metadata>
  <g
     inkscape:label="Calque 1"
     inkscape:groupmode="layer"
     id="layer1"
     transform="translate(130.83307,20.348802)">
    <path
       style="display:inline;fill:none;fill-opacity:1;stroke:#000000;stroke-width:0.91287088;stroke-opacity:1"
       d="M 0.5 0.5 L 0.5 5.5 L 6.5 5.5 L 6.5 0.5 L 0.5 0.5 z M 1595.5 1.109375 L 1595.5 5.5 L 1600.5 5.5 L 1600.5 1.109375 L 1595.5 1.109375 z M 406.79688 32.521484 C 404.76692 32.51541 402.78888 32.527028 400.86328 32.558594 C 355.90881 33.295526 162.84995 52.390281 83.269531 244.69141 C 37.255333 355.88183 36.473676 476.62667 36.201172 640.12109 L 35.939453 673.64062 C 35.537841 725.06767 37.367658 987.92601 102.72461 1088.2832 C 168.08174 1188.6403 254.86831 1231.4979 328.79688 1248.6406 C 402.72547 1265.7835 465.22516 1256.8551 555.93945 1238.998 C 646.65375 1221.1408 823.08203 1129.7116 855.58203 1115.4258 C 888.08203 1101.1401 949.51032 1075.7832 1010.2246 1075.7832 C 1070.9389 1075.7832 1125.2244 1109.3555 1182.3672 1129.3555 C 1239.5101 1149.3554 1283.0811 1168.2832 1357.0098 1173.2832 C 1430.9383 1178.2832 1479.5101 1156.1398 1502.3672 1142.5684 C 1525.2244 1128.9969 1545.5823 1110.7832 1545.9395 1075.7832 C 1546.2965 1040.7832 1523.4389 1023.2823 1485.2246 1004.7109 C 1447.0103 986.13944 1422.0103 987.92601 1360.2246 955.7832 C 1298.4389 923.64029 1285.5823 850.7832 1285.9395 835.7832 C 1286.2965 820.7832 1294.5109 790.42653 1321.1309 773.01172 C 1347.7508 755.59694 1367.1883 750.42629 1372.5898 750.44141 C 1374.7249 750.44764 1436.4994 750.06059 1449.6055 744.77734 C 1457.5328 741.58172 1472.4995 731.50098 1482.041 723.04297 C 1503.4995 703.98266 1527.0103 682.08011 1536.043 671.5 C 1543.4997 663.49999 1564.5005 628.5004 1565.9199 599.89062 C 1565.5005 569.50039 1556.2275 549.57605 1539.8125 541.62109 C 1539.8125 541.62109 1515.5663 535.11013 1507.9902 530.56445 C 1500.414 526.01874 1493.848 507.33081 1492.8379 500.25977 C 1491.8277 493.18869 1501.9301 477.53196 1513.5469 460.35938 C 1525.1636 443.18679 1534.7594 417.9331 1545.8711 391.16406 C 1556.9828 364.39499 1570.114 308.83619 1568.0938 269.94531 C 1566.0734 231.05447 1550.4168 203.77924 1540.8203 186.10156 C 1531.2239 168.42392 1507.9898 151.25306 1483.7461 138.12109 C 1459.5024 124.98913 1422.0098 119.71178 1412.0098 118.2832 C 1402.0098 116.85465 1357.0112 109.71207 1286.2969 126.14062 C 1215.5826 142.56921 1151.2963 172.92548 1113.082 190.06836 C 1074.8677 207.2112 1058.4716 212.36719 984.73047 212.36719 C 910.98935 212.36719 776.63947 134.58462 677.64453 92.158203 C 581.74315 51.057622 469.72545 32.709778 406.79688 32.521484 z M 410.66406 96.054688 C 418.99184 96.064772 428.04173 96.30088 438.26953 96.679688 C 489.1484 98.564084 589.45117 123.13672 589.45117 123.13672 L 589.45117 436.83789 L 305.98633 115.57812 C 352.04932 100.22379 374.57703 96.010986 410.66406 96.054688 z M 646.14453 134.47461 L 891.8125 436.83789 L 646.14453 436.83789 L 646.14453 134.47461 z M 249.29297 153.37305 L 513.86133 440.61719 L 117.00977 436.83789 C 117.00977 436.83789 112.22034 381.44936 150.01562 283.18164 C 186.42161 188.52605 249.29297 153.37305 249.29297 153.37305 z M 1385.8574 172.16797 C 1395.8801 172.26131 1405.1893 173.23385 1413.457 175.30078 C 1489.0476 194.19842 1501.7988 251.69305 1501.7988 289.48828 C 1501.7988 327.28356 1496.5383 342.34926 1477.6406 380.14453 C 1458.743 417.93981 1417.5026 440.28255 1420.9473 436.83789 L 1175.2773 228.96289 C 1175.2773 228.96289 1304.2446 171.40792 1385.8574 172.16797 z M 759.5293 191.16797 C 759.5293 191.16797 834.13072 229.37946 886.39844 246.74609 C 921.08993 258.27278 971.0715 270.63734 990.93359 269.78906 L 1061.8926 266.75977 L 1061.8926 436.83789 L 967.4043 436.83789 L 759.5293 191.16797 z M 1118.5859 247.86133 L 1345.3574 436.83789 L 1118.5859 436.83789 L 1118.5859 247.86133 z M 292.68945 474.5 L 542.31055 474.5 C 561.25104 474.5 576.5 486.76975 576.5 502.01172 L 576.5 787.98828 C 576.5 803.23025 561.25104 815.5 542.31055 815.5 L 292.68945 815.5 C 273.74896 815.5 258.5 803.23025 258.5 787.98828 L 258.5 502.01172 C 258.5 486.76975 273.74896 474.5 292.68945 474.5 z M 285.79883 489.60352 A 3.7795276 3.7795276 0 0 0 282.01953 493.38281 A 3.7795276 3.7795276 0 0 0 285.79883 497.16211 A 3.7795276 3.7795276 0 0 0 289.57812 493.38281 A 3.7795276 3.7795276 0 0 0 285.79883 489.60352 z M 544.22656 489.60352 A 3.7795276 3.7795276 0 0 0 540.44727 493.38281 A 3.7795276 3.7795276 0 0 0 544.22656 497.16211 A 3.7795276 3.7795276 0 0 0 548.00781 493.38281 A 3.7795276 3.7795276 0 0 0 544.22656 489.60352 z M 162.70117 495.24023 L 208.29883 495.24023 C 217.82864 495.24023 225.5 504.79118 225.5 516.6543 L 225.5 772.41016 C 225.5 784.27327 217.82864 793.82227 208.29883 793.82227 L 162.70117 793.82227 C 153.17136 793.82227 145.5 784.27327 145.5 772.41016 L 145.5 516.6543 C 145.5 504.79118 153.17136 495.24023 162.70117 495.24023 z M 633.94531 515.69727 L 673.49414 515.69727 C 681.75989 515.69727 688.41406 525.43112 688.41406 537.52344 L 688.41406 750.87695 C 688.41406 762.96927 681.75989 772.70508 673.49414 772.70508 L 633.94531 772.70508 C 625.67956 772.70508 619.02539 762.96927 619.02539 750.87695 L 619.02539 537.52344 C 619.02539 525.43112 625.67956 515.69727 633.94531 515.69727 z M 545.72656 791.38867 A 3.7795276 3.7795276 0 0 0 541.94727 795.16797 A 3.7795276 3.7795276 0 0 0 545.72656 798.94727 A 3.7795276 3.7795276 0 0 0 549.50781 795.16797 A 3.7795276 3.7795276 0 0 0 545.72656 791.38867 z M 285.44141 791.45898 A 3.7795276 3.7795276 0 0 0 281.66211 795.24023 A 3.7795276 3.7795276 0 0 0 285.44141 799.01953 A 3.7795276 3.7795276 0 0 0 289.2207 795.24023 A 3.7795276 3.7795276 0 0 0 285.44141 791.45898 z M 590.14648 844.51562 L 590.14648 1154.4375 C 590.14648 1154.4375 528.69194 1181.3102 489.40625 1188.4531 C 445.83484 1194.8817 451.79159 1171.8505 460.00586 1120.4219 C 475.03681 1031.139 521.84514 957.63756 556.13086 901.20898 L 590.14648 844.51562 z M 990.77539 846.7793 L 990.77539 1029.7129 L 760.22461 848.29492 L 990.77539 846.7793 z M 646.83789 848.29492 L 684.63477 848.29492 L 915.18555 1037.2715 C 915.18555 1037.2715 869.83045 1052.389 802.58008 1085.9395 C 732.85807 1120.7229 646.83789 1146.8789 646.83789 1146.8789 L 646.83789 848.29492 z M 1043.6895 848.29492 L 1232.666 848.29492 C 1232.666 848.29492 1236.4458 904.98808 1278.1387 956.05664 C 1306.0134 990.19961 1360.7804 1010.1004 1406.1348 1028.998 C 1451.4891 1047.8956 1470.7764 1044.8301 1485.8945 1075.0664 C 1489.674 1120.4207 1432.9811 1124.2012 1421.6426 1124.2012 C 1376.2882 1131.7603 1338.4924 1124.2014 1322.75 1122.3848 C 1267.555 1116.0153 1225.1066 1093.9645 1167.2832 1069.2344 C 1115.9747 1047.2907 1043.6895 1029.7129 1043.6895 1029.7129 L 1043.6895 848.29492 z M 514.55469 848.80664 C 514.55469 848.80664 427.42971 1008.1314 242.42969 1078.8457 C 242.42969 1078.8457 187.11694 1097.1305 150.71094 1003.8887 C 112.91566 907.08877 117.70508 852.5293 117.70508 852.5293 L 514.55469 848.80664 z M 500.22266 908.78125 C 503.91759 908.8089 507.06251 910.3125 510.5 912.5 C 529.50003 924.5 520.50078 944.49913 494.38867 999.03711 C 476.74996 1035.8774 463.5 1078.5 463.5 1078.5 C 463.5 1078.5 428.6802 1187.8528 460.5 1202.5 C 481.5 1212.5 489.49999 1234.5 464.5 1243.5 C 439.50001 1246.5 400.06096 1261.8553 294.5 1226.5 C 191.96952 1189.1244 154.43909 1135.5609 160.5 1129.5 C 168.49999 1092.5 242.87815 1108.3224 354.5 1026.5 C 354.5 1026.5 417.87962 979.88493 458.86523 938.47461 C 481.30219 915.80514 492.09381 908.72041 500.22266 908.78125 z M 500.94141 928.81641 A 3.7795276 3.7795276 0 0 0 497.16211 932.5957 A 3.7795276 3.7795276 0 0 0 500.94141 936.37695 A 3.7795276 3.7795276 0 0 0 504.7207 932.5957 A 3.7795276 3.7795276 0 0 0 500.94141 928.81641 z M 181 1126.7207 A 3.7795276 3.7795276 0 0 0 177.2207 1130.5 A 3.7795276 3.7795276 0 0 0 181 1134.2793 A 3.7795276 3.7795276 0 0 0 184.7793 1130.5 A 3.7795276 3.7795276 0 0 0 181 1126.7207 z M 457.75195 1221.1504 A 3.7795276 3.7795276 0 0 0 453.97266 1224.9297 A 3.7795276 3.7795276 0 0 0 457.75195 1228.709 A 3.7795276 3.7795276 0 0 0 461.53125 1224.9297 A 3.7795276 3.7795276 0 0 0 457.75195 1221.1504 z M 0.5 1285.5 L 0.5 1290.5 L 5.5 1290.5 L 5.5 1285.5 L 0.5 1285.5 z M 1604.5 1294.5 L 1604.5 1295.5 L 1605.6172 1295.5 L 1605.6172 1294.5 L 1604.5 1294.5 z "
       transform="matrix(0.26458333,0,0,0.26458333,-130.83307,-20.348802)"
       id="rect2075" />
  </g>
</svg>
