<?xml version="1.0" encoding="UTF-8" standalone="no"?>
<!-- Created with Inkscape (http://www.inkscape.org/) -->

<svg
   xmlns:dc="http://purl.org/dc/elements/1.1/"
   xmlns:cc="http://creativecommons.org/ns#"
   xmlns:rdf="http://www.w3.org/1999/02/22-rdf-syntax-ns#"
   xmlns:svg="http://www.w3.org/2000/svg"
   xmlns="http://www.w3.org/2000/svg"
   xmlns:sodipodi="http://sodipodi.sourceforge.net/DTD/sodipodi-0.dtd"
   xmlns:inkscape="http://www.inkscape.org/namespaces/inkscape"
   width="424.68726mm"
   height="342.63541mm"
   viewBox="0 0 424.68726 342.63541"
   version="1.1"
   id="svg3663"
   inkscape:version="0.92.4 (5da689c313, 2019-01-14)"
   sodipodi:docname="LAYER5.svg">
  <defs
     id="defs3657" />
  <sodipodi:namedview
     id="base"
     pagecolor="#ffffff"
     bordercolor="#666666"
     borderopacity="1.0"
     inkscape:pageopacity="0.0"
     inkscape:pageshadow="2"
     inkscape:zoom="0.49497475"
     inkscape:cx="360.32392"
     inkscape:cy="761.67923"
     inkscape:document-units="mm"
     inkscape:current-layer="layer1"
     showgrid="false"
     fit-margin-top="0"
     fit-margin-left="0"
     fit-margin-right="0"
     fit-margin-bottom="0"
     inkscape:window-width="1920"
     inkscape:window-height="1004"
     inkscape:window-x="-4"
     inkscape:window-y="-4"
     inkscape:window-maximized="1" />
  <metadata
     id="metadata3660">
    <rdf:RDF>
      <cc:Work
         rdf:about="">
        <dc:format>image/svg+xml</dc:format>
        <dc:type
           rdf:resource="http://purl.org/dc/dcmitype/StillImage" />
        <dc:title />
      </cc:Work>
    </rdf:RDF>
  </metadata>
  <g
     inkscape:label="Calque 1"
     inkscape:groupmode="layer"
     id="layer1"
     transform="translate(170.38803,11.582124)">
    <path
       style="display:inline;opacity:1;fill:none;fill-opacity:1;stroke:#000000;stroke-width:0.91287088;stroke-opacity:1"
       d="M 0 0 L 0 5 L 6 5 L 6 0 L 0 0 z M 1595 0.609375 L 1595 5 L 1600 5 L 1600 0.609375 L 1595 0.609375 z M 406.29688 32.021484 C 404.26692 32.01541 402.28888 32.027028 400.36328 32.058594 C 355.40882 32.795526 162.34994 51.890289 82.769531 244.19141 C 36.755333 355.38183 35.973676 476.12667 35.701172 639.62109 L 35.701172 691.04883 C 35.701172 742.47743 36.867394 987.42582 102.22461 1087.7832 C 167.58175 1188.1402 254.36832 1230.9978 328.29688 1248.1406 C 402.22545 1265.2837 464.72518 1256.3551 555.43945 1238.498 C 646.15374 1220.6407 822.58203 1129.2116 855.08203 1114.9258 C 887.58204 1100.64 949.01028 1075.2832 1009.7246 1075.2832 C 1070.4389 1075.2832 1124.7244 1108.8555 1181.8672 1128.8555 C 1239.0101 1148.8554 1282.5811 1167.7831 1356.5098 1172.7832 C 1430.4383 1177.7832 1479.0101 1155.6397 1501.8672 1142.0684 C 1524.7244 1128.4968 1545.0823 1110.2831 1545.4395 1075.2832 C 1545.7966 1040.2832 1522.9389 1022.7823 1484.7246 1004.2109 C 1446.5103 985.63944 1421.5103 987.42601 1359.7246 955.2832 C 1297.9389 923.14029 1285.0823 850.2832 1285.4395 835.2832 C 1285.7965 820.2832 1294.0109 789.92657 1320.6309 772.51172 C 1335.2751 762.93145 1347.7461 757.05702 1356.9023 753.71289 C 1364.39 750.97799 1359.8726 750.74072 1356 751 C 1326.4881 751.58382 1325.2717 750.94546 1292.6387 751.07812 C 1272.0007 750.99936 1268.0002 745.00011 1268.3848 725.18359 C 1268.8307 719.02289 1268.176 585.10578 1268.5332 562.96289 C 1269.0004 546.0003 1272.9998 538.99988 1294.6152 539.05469 C 1367.134 539.23905 1524 539.7793 1524 539.7793 C 1524 539.7793 1532.8518 539.3858 1525.5586 537.08203 C 1518.7229 534.92282 1511.1556 532.26368 1507.4902 530.06445 C 1499.914 525.51874 1493.348 506.83081 1492.3379 499.75977 C 1491.3277 492.68869 1501.4301 477.03196 1513.0469 459.85938 C 1524.6636 442.68679 1534.2594 417.43309 1545.3711 390.66406 C 1556.4828 363.895 1569.614 308.33619 1567.5938 269.44531 C 1565.5734 230.55447 1549.9168 203.27924 1540.3203 185.60156 C 1530.7239 167.92392 1507.4898 150.75306 1483.2461 137.62109 C 1459.0024 124.48913 1421.5098 119.21178 1411.5098 117.7832 C 1401.5098 116.35465 1356.5112 109.21208 1285.7969 125.64062 C 1215.0826 142.06921 1150.7963 172.42548 1112.582 189.56836 C 1074.3677 206.7112 1057.9716 211.86719 984.23047 211.86719 C 910.48935 211.86719 776.13947 134.08461 677.14453 91.658203 C 581.24315 50.55762 469.22544 32.209777 406.29688 32.021484 z M 410.16406 95.554688 C 418.49184 95.564772 427.54174 95.80088 437.76953 96.179688 C 488.64841 98.064084 588.95117 122.63672 588.95117 122.63672 L 588.95117 436.33789 L 305.48633 115.07812 C 351.54932 99.723797 374.07704 95.510986 410.16406 95.554688 z M 645.64453 133.97461 L 891.3125 436.33789 L 645.64453 436.33789 L 645.64453 133.97461 z M 248.79297 152.87305 L 513.36133 440.11719 L 116.50977 436.33789 C 116.50977 436.33789 111.72035 380.94936 149.51562 282.68164 C 185.92158 188.02605 248.79297 152.87305 248.79297 152.87305 z M 1385.3574 171.66797 C 1395.3801 171.76131 1404.6893 172.73385 1412.957 174.80078 C 1488.5476 193.69842 1501.2988 251.19305 1501.2988 288.98828 C 1501.2988 326.78356 1496.0383 341.84925 1477.1406 379.64453 C 1458.243 417.4398 1417.0026 439.78255 1420.4473 436.33789 L 1174.7773 228.46289 C 1174.7773 228.46289 1303.7446 170.90792 1385.3574 171.66797 z M 759.0293 190.66797 C 759.0293 190.66797 833.6307 228.87946 885.89844 246.24609 C 920.58993 257.77278 970.5715 270.13734 990.43359 269.28906 L 1061.3926 266.25977 L 1061.3926 436.33789 L 966.9043 436.33789 L 759.0293 190.66797 z M 1118.0859 247.36133 L 1344.8574 436.33789 L 1118.0859 436.33789 L 1118.0859 247.36133 z M 801.18359 482.96094 L 865.60352 482.96094 C 874.57335 482.96094 882.02247 490.45904 883.92969 500.55469 L 885.94336 500.55469 C 898.50651 500.55469 908.62109 510.66927 908.62109 523.23242 L 908.62109 764.86719 C 908.62109 777.43034 898.50651 787.54297 885.94336 787.54297 L 883.7832 787.54297 C 881.67047 797.28376 874.36527 804.44141 865.60352 804.44141 L 801.18359 804.44141 C 792.42185 804.44141 785.11663 797.28376 783.00391 787.54297 L 782.36914 787.54297 C 769.80599 787.54297 759.69336 777.43034 759.69336 764.86719 L 759.69336 523.23242 C 759.69336 510.66927 769.80599 500.55469 782.36914 500.55469 L 782.85742 500.55469 C 784.76464 490.45904 792.21375 482.96094 801.18359 482.96094 z M 313.73828 492.74023 L 516.26172 492.74023 C 531.62854 492.74023 544 503.61982 544 517.13477 L 544 770.70703 C 544 784.22197 531.62854 795.10156 516.26172 795.10156 L 313.73828 795.10156 C 298.37146 795.10156 286 784.22197 286 770.70703 L 286 517.13477 C 286 503.61982 298.37146 492.74023 313.73828 492.74023 z M 162.20117 494.74023 L 207.79883 494.74023 C 217.32864 494.74023 225 504.29118 225 516.1543 L 225 771.91016 C 225 783.77327 217.32864 793.32227 207.79883 793.32227 L 162.20117 793.32227 C 152.67136 793.32227 145 783.77327 145 771.91016 L 145 516.1543 C 145 504.29118 152.67136 494.74023 162.20117 494.74023 z M 589.64648 844.01562 L 589.64648 1153.9375 C 589.64648 1153.9375 528.19194 1180.8102 488.90625 1187.9531 C 445.33483 1194.3818 451.29159 1171.3505 459.50586 1119.9219 C 474.53682 1030.639 521.34514 957.13756 555.63086 900.70898 L 589.64648 844.01562 z M 990.27539 846.2793 L 990.27539 1029.2129 L 759.72461 847.79492 L 990.27539 846.2793 z M 646.33789 847.79492 L 684.13477 847.79492 L 914.68555 1036.7715 C 914.68555 1036.7715 869.33046 1051.889 802.08008 1085.4395 C 732.35808 1120.2229 646.33789 1146.3789 646.33789 1146.3789 L 646.33789 847.79492 z M 1043.1895 847.79492 L 1232.166 847.79492 C 1232.166 847.79492 1235.9458 904.48808 1277.6387 955.55664 C 1305.5134 989.69961 1360.2804 1009.6004 1405.6348 1028.498 C 1450.9891 1047.3956 1470.2764 1044.3301 1485.3945 1074.5664 C 1489.174 1119.9207 1432.4811 1123.7012 1421.1426 1123.7012 C 1375.7882 1131.2603 1337.9924 1123.7014 1322.25 1121.8848 C 1267.055 1115.5153 1224.6066 1093.4645 1166.7832 1068.7344 C 1115.4747 1046.7907 1043.1895 1029.2129 1043.1895 1029.2129 L 1043.1895 847.79492 z M 514.05469 848.30664 C 514.05469 848.30664 426.92972 1007.6314 241.92969 1078.3457 C 241.92969 1078.3457 186.6169 1096.6304 150.21094 1003.3887 C 112.41566 906.58873 117.20508 852.0293 117.20508 852.0293 L 514.05469 848.30664 z M 481.28125 942.45312 C 486.93734 942.50016 492.5 944.5 498 949 C 498 949 507.64084 956.42053 499.94141 972.37305 C 485.89721 1001.4714 464.10155 1048.942 453.00977 1084.9902 C 441.64555 1130.6997 431.00975 1165.9901 442.00977 1203.9902 C 443.77753 1217.8798 441.40444 1234.2022 427.00977 1237.9902 C 404.7864 1237.9902 372.03135 1233.5258 345.00977 1229.9902 C 319.50342 1225.1919 279.87906 1210.5563 268.00977 1203.9902 C 252.09986 1196.1615 213.67729 1176.0525 197.00977 1144.9902 C 189.43363 1125.0397 243.00977 1101.9902 243.00977 1101.9902 C 276.84989 1085.8278 294.78733 1072.3096 331.00977 1050.9902 C 360.88271 1028.7612 392.66456 1008.527 427.00977 979.99023 C 446.50209 959.74786 464.31298 942.31202 481.28125 942.45312 z M 0 1285 L 0 1290 L 5 1290 L 5 1285 L 0 1285 z M 1604 1294 L 1604 1295 L 1605.1172 1295 L 1605.1172 1294 L 1604 1294 z "
       transform="matrix(0.26458333,0,0,0.26458333,-170.38803,-11.582124)"
       id="rect2075" />
  </g>
</svg>
