<?xml version="1.0" encoding="UTF-8" standalone="no"?>
<!-- Created with Inkscape (http://www.inkscape.org/) -->

<svg
   xmlns:dc="http://purl.org/dc/elements/1.1/"
   xmlns:cc="http://creativecommons.org/ns#"
   xmlns:rdf="http://www.w3.org/1999/02/22-rdf-syntax-ns#"
   xmlns:svg="http://www.w3.org/2000/svg"
   xmlns="http://www.w3.org/2000/svg"
   xmlns:sodipodi="http://sodipodi.sourceforge.net/DTD/sodipodi-0.dtd"
   xmlns:inkscape="http://www.inkscape.org/namespaces/inkscape"
   width="424.68726mm"
   height="342.63541mm"
   viewBox="0 0 424.68726 342.63541"
   version="1.1"
   id="svg2250"
   inkscape:version="0.92.4 (5da689c313, 2019-01-14)"
   sodipodi:docname="LAYER1.svg">
  <defs
     id="defs2244" />
  <sodipodi:namedview
     id="base"
     pagecolor="#ffffff"
     bordercolor="#666666"
     borderopacity="1.0"
     inkscape:pageopacity="0.0"
     inkscape:pageshadow="2"
     inkscape:zoom="0.49497475"
     inkscape:cx="258.88828"
     inkscape:cy="564.0465"
     inkscape:document-units="mm"
     inkscape:current-layer="layer1"
     showgrid="false"
     fit-margin-top="0"
     fit-margin-left="0"
     fit-margin-right="0"
     fit-margin-bottom="0"
     inkscape:window-width="1920"
     inkscape:window-height="1004"
     inkscape:window-x="-4"
     inkscape:window-y="-4"
     inkscape:window-maximized="1" />
  <metadata
     id="metadata2247">
    <rdf:RDF>
      <cc:Work
         rdf:about="">
        <dc:format>image/svg+xml</dc:format>
        <dc:type
           rdf:resource="http://purl.org/dc/dcmitype/StillImage" />
        <dc:title />
      </cc:Work>
    </rdf:RDF>
  </metadata>
  <g
     inkscape:label="Calque 1"
     inkscape:groupmode="layer"
     id="layer1"
     transform="translate(172.95512,-56.60714)">
    <path
       style="display:inline;opacity:1;fill:none;fill-opacity:1;stroke:#000000;stroke-width:0.91287088;stroke-opacity:0.9424779"
       d="M 0 0 L 0 5 L 6 5 L 6 0 L 0 0 z M 1595 0.609375 L 1595 5 L 1600 5 L 1600 0.609375 L 1595 0.609375 z M 406.29688 32.021484 C 404.26692 32.01541 402.28888 32.027028 400.36328 32.058594 C 355.40882 32.795526 162.34994 51.890288 82.769531 244.19141 C 36.755333 355.38182 35.973676 476.12667 35.701172 639.62109 L 35.439453 673.14062 C 35.037803 724.56767 36.86762 987.42601 102.22461 1087.7832 C 167.58175 1188.1403 254.36831 1230.9979 328.29688 1248.1406 C 402.22544 1265.2835 464.72518 1256.3551 555.43945 1238.498 C 646.15375 1220.6408 822.58202 1129.2116 855.08203 1114.9258 C 887.58204 1100.6401 949.01032 1075.2832 1009.7246 1075.2832 C 1070.4389 1075.2832 1124.7244 1108.8555 1181.8672 1128.8555 C 1239.0101 1148.8554 1282.5811 1167.7832 1356.5098 1172.7832 C 1430.4383 1177.7832 1479.0101 1155.6398 1501.8672 1142.0684 C 1524.7244 1128.4969 1545.0823 1110.2832 1545.4395 1075.2832 C 1545.7965 1040.2832 1522.9389 1022.7823 1484.7246 1004.2109 C 1446.5103 985.63944 1421.5103 987.42601 1359.7246 955.2832 C 1297.9389 923.14029 1285.0823 850.2832 1285.4395 835.2832 C 1285.7965 820.2832 1294.0109 789.92653 1320.6309 772.51172 C 1347.2508 755.09694 1366.6883 749.92629 1372.0898 749.94141 C 1374.2249 749.94764 1435.9994 749.56059 1449.1055 744.27734 C 1457.0328 741.08172 1471.9995 731.00098 1481.541 722.54297 C 1502.9995 703.48266 1526.5103 681.58011 1535.543 671 C 1542.9997 662.99999 1564.0005 628.0004 1565.4199 599.39062 C 1565.0005 569.00039 1555.7275 549.07605 1539.3125 541.12109 C 1539.3125 541.12109 1515.0663 534.61013 1507.4902 530.06445 C 1499.914 525.51874 1493.348 506.83081 1492.3379 499.75977 C 1491.3277 492.68869 1501.4301 477.03196 1513.0469 459.85938 C 1524.6636 442.68679 1534.2594 417.4331 1545.3711 390.66406 C 1556.4828 363.89499 1569.614 308.3362 1567.5938 269.44531 C 1565.5734 230.55447 1549.9168 203.27924 1540.3203 185.60156 C 1530.7239 167.92392 1507.4898 150.75306 1483.2461 137.62109 C 1459.0024 124.48913 1421.5098 119.21178 1411.5098 117.7832 C 1401.5098 116.35465 1356.5112 109.21208 1285.7969 125.64062 C 1215.0826 142.06921 1150.7963 172.42548 1112.582 189.56836 C 1074.3677 206.7112 1057.9716 211.86719 984.23047 211.86719 C 910.48936 211.86719 776.13947 134.08461 677.14453 91.658203 C 581.24315 50.557622 469.22544 32.209778 406.29688 32.021484 z M 410.16406 95.554688 C 418.49184 95.564772 427.54174 95.80088 437.76953 96.179688 C 488.64841 98.064084 588.95117 122.63672 588.95117 122.63672 L 588.95117 436.33789 L 305.48633 115.07812 C 351.54932 99.723797 374.07704 95.510986 410.16406 95.554688 z M 645.64453 133.97461 L 891.3125 436.33789 L 645.64453 436.33789 L 645.64453 133.97461 z M 248.79297 152.87305 L 513.36133 440.11719 L 116.50977 436.33789 C 116.50977 436.33789 111.72035 380.94936 149.51562 282.68164 C 185.92162 188.02606 248.79297 152.87305 248.79297 152.87305 z M 1385.3574 171.66797 C 1395.3801 171.76131 1404.6893 172.73385 1412.957 174.80078 C 1488.5476 193.69842 1501.2988 251.19304 1501.2988 288.98828 C 1501.2988 326.78356 1496.0383 341.84926 1477.1406 379.64453 C 1458.243 417.43981 1417.0026 439.78255 1420.4473 436.33789 L 1174.7773 228.46289 C 1174.7773 228.46289 1303.7446 170.90792 1385.3574 171.66797 z M 759.0293 190.66797 C 759.0293 190.66797 833.6307 228.87947 885.89844 246.24609 C 920.58993 257.77278 970.5715 270.13734 990.43359 269.28906 L 1061.3926 266.25977 L 1061.3926 436.33789 L 966.9043 436.33789 L 759.0293 190.66797 z M 1118.0859 247.36133 L 1344.8574 436.33789 L 1118.0859 436.33789 L 1118.0859 247.36133 z M 313.73828 492.74023 L 516.26172 492.74023 C 531.62854 492.74023 544 503.61982 544 517.13477 L 544 770.70703 C 544 784.22197 531.62854 795.10156 516.26172 795.10156 L 313.73828 795.10156 C 298.37146 795.10156 286 784.22197 286 770.70703 L 286 517.13477 C 286 503.61982 298.37146 492.74023 313.73828 492.74023 z M 162.20117 494.74023 L 207.79883 494.74023 C 217.32864 494.74023 225 504.29118 225 516.1543 L 225 771.91016 C 225 783.77327 217.32864 793.32227 207.79883 793.32227 L 162.20117 793.32227 C 152.67136 793.32227 145 783.77327 145 771.91016 L 145 516.1543 C 145 504.29118 152.67136 494.74023 162.20117 494.74023 z M 633.44531 515.19727 L 672.99414 515.19727 C 681.25989 515.19727 687.91406 524.93112 687.91406 537.02344 L 687.91406 750.37695 C 687.91406 762.46927 681.25989 772.20508 672.99414 772.20508 L 633.44531 772.20508 C 625.17956 772.20508 618.52539 762.46927 618.52539 750.37695 L 618.52539 537.02344 C 618.52539 524.93112 625.17956 515.19727 633.44531 515.19727 z M 589.64648 844.01562 L 589.64648 1153.9375 C 589.64648 1153.9375 528.19194 1180.8102 488.90625 1187.9531 C 445.33483 1194.3817 451.29159 1171.3505 459.50586 1119.9219 C 474.53682 1030.639 521.34514 957.13756 555.63086 900.70898 L 589.64648 844.01562 z M 990.27539 846.2793 L 990.27539 1029.2129 L 759.72461 847.79492 L 990.27539 846.2793 z M 646.33789 847.79492 L 684.13477 847.79492 L 914.68555 1036.7715 C 914.68555 1036.7715 869.33046 1051.889 802.08008 1085.4395 C 732.35808 1120.2229 646.33789 1146.3789 646.33789 1146.3789 L 646.33789 847.79492 z M 1043.1895 847.79492 L 1232.166 847.79492 C 1232.166 847.79492 1235.9458 904.48808 1277.6387 955.55664 C 1305.5134 989.69961 1360.2804 1009.6004 1405.6348 1028.498 C 1450.9891 1047.3956 1470.2764 1044.3301 1485.3945 1074.5664 C 1489.174 1119.9207 1432.4811 1123.7012 1421.1426 1123.7012 C 1375.7882 1131.2603 1337.9924 1123.7014 1322.25 1121.8848 C 1267.055 1115.5153 1224.6066 1093.4645 1166.7832 1068.7344 C 1115.4747 1046.7907 1043.1895 1029.2129 1043.1895 1029.2129 L 1043.1895 847.79492 z M 514.05469 848.30664 C 514.05469 848.30664 426.92968 1007.6314 241.92969 1078.3457 C 241.92969 1078.3457 186.61693 1096.6305 150.21094 1003.3887 C 112.41566 906.58877 117.20508 852.0293 117.20508 852.0293 L 514.05469 848.30664 z M 481.28125 942.45312 C 486.93734 942.50016 492.5 944.5 498 949 C 498 949 507.64084 956.42053 499.94141 972.37305 C 485.89721 1001.4714 464.10155 1048.942 453.00977 1084.9902 C 441.64555 1130.6997 431.00975 1165.9901 442.00977 1203.9902 C 443.77753 1217.8798 441.40444 1234.2022 427.00977 1237.9902 C 404.7864 1237.9902 372.03135 1233.5257 345.00977 1229.9902 C 319.5034 1225.1919 279.87905 1210.5563 268.00977 1203.9902 C 252.09988 1196.1615 213.67729 1176.0525 197.00977 1144.9902 C 189.43363 1125.0397 243.00977 1101.9902 243.00977 1101.9902 C 276.84986 1085.8277 294.78734 1072.3096 331.00977 1050.9902 C 360.88271 1028.7612 392.66456 1008.527 427.00977 979.99023 C 446.50209 959.74786 464.31298 942.31202 481.28125 942.45312 z M 0 1285 L 0 1290 L 5 1290 L 5 1285 L 0 1285 z M 1604 1294 L 1604 1295 L 1605.1172 1295 L 1605.1172 1294 L 1604 1294 z "
       transform="matrix(0.26458333,0,0,0.26458333,-172.95512,56.60714)"
       id="rect2075" />
  </g>
</svg>
